<mxfile host="app.diagrams.net" modified="2024-05-22T20:58:21.865Z" agent="Mozilla/5.0 (Windows NT 10.0; Win64; x64) AppleWebKit/537.36 (KHTML, like Gecko) Chrome/124.0.0.0 Safari/537.36" etag="4wNNvGia32Piqer2lC3b" version="24.4.6" type="device">
  <diagram name="Страница — 1" id="LufiJeu3-pXwnTi8izz7">
    <mxGraphModel dx="1434" dy="738" grid="0" gridSize="10" guides="1" tooltips="1" connect="1" arrows="1" fold="1" page="1" pageScale="1" pageWidth="827" pageHeight="1169" math="0" shadow="0">
      <root>
        <mxCell id="0" />
        <mxCell id="1" parent="0" />
        <mxCell id="Vu3-8s2lDNPPCOWp2bvV-18" style="edgeStyle=orthogonalEdgeStyle;rounded=0;orthogonalLoop=1;jettySize=auto;html=1;entryX=1;entryY=0.5;entryDx=0;entryDy=0;endArrow=none;endFill=0;curved=1;" parent="1" source="pwvayn23MqUziZKHQvTS-8" target="Vu3-8s2lDNPPCOWp2bvV-3" edge="1">
          <mxGeometry relative="1" as="geometry" />
        </mxCell>
        <mxCell id="Vu3-8s2lDNPPCOWp2bvV-19" style="edgeStyle=orthogonalEdgeStyle;rounded=0;orthogonalLoop=1;jettySize=auto;html=1;entryX=1;entryY=0.5;entryDx=0;entryDy=0;curved=1;endArrow=none;endFill=0;" parent="1" source="pwvayn23MqUziZKHQvTS-8" target="pwvayn23MqUziZKHQvTS-25" edge="1">
          <mxGeometry relative="1" as="geometry" />
        </mxCell>
        <mxCell id="Vu3-8s2lDNPPCOWp2bvV-20" style="edgeStyle=orthogonalEdgeStyle;rounded=0;orthogonalLoop=1;jettySize=auto;html=1;entryX=1;entryY=0.5;entryDx=0;entryDy=0;endArrow=none;endFill=0;curved=1;" parent="1" source="pwvayn23MqUziZKHQvTS-8" target="pwvayn23MqUziZKHQvTS-39" edge="1">
          <mxGeometry relative="1" as="geometry" />
        </mxCell>
        <mxCell id="pwvayn23MqUziZKHQvTS-8" value="Менеджер&amp;nbsp;&amp;nbsp;" style="shape=umlActor;verticalLabelPosition=bottom;verticalAlign=top;html=1;outlineConnect=0;" parent="1" vertex="1">
          <mxGeometry x="719" y="344" width="30" height="60" as="geometry" />
        </mxCell>
        <mxCell id="Vu3-8s2lDNPPCOWp2bvV-14" style="edgeStyle=orthogonalEdgeStyle;rounded=0;orthogonalLoop=1;jettySize=auto;html=1;curved=1;endArrow=none;endFill=0;" parent="1" source="pwvayn23MqUziZKHQvTS-25" edge="1">
          <mxGeometry relative="1" as="geometry">
            <mxPoint x="439" y="374" as="targetPoint" />
          </mxGeometry>
        </mxCell>
        <mxCell id="pwvayn23MqUziZKHQvTS-25" value="Оформление заказа клиента на автомобиль" style="ellipse;whiteSpace=wrap;html=1;" parent="1" vertex="1">
          <mxGeometry x="469" y="344" width="170" height="60" as="geometry" />
        </mxCell>
        <mxCell id="pwvayn23MqUziZKHQvTS-29" value="Клиент&amp;nbsp;&lt;div&gt;&lt;br&gt;&lt;/div&gt;" style="shape=umlActor;verticalLabelPosition=bottom;verticalAlign=top;html=1;outlineConnect=0;" parent="1" vertex="1">
          <mxGeometry x="389" y="354" width="40" height="70" as="geometry" />
        </mxCell>
        <mxCell id="Vu3-8s2lDNPPCOWp2bvV-16" style="edgeStyle=orthogonalEdgeStyle;rounded=0;orthogonalLoop=1;jettySize=auto;html=1;entryX=0;entryY=0.5;entryDx=0;entryDy=0;endArrow=none;endFill=0;" parent="1" source="pwvayn23MqUziZKHQvTS-35" target="pwvayn23MqUziZKHQvTS-36" edge="1">
          <mxGeometry relative="1" as="geometry" />
        </mxCell>
        <mxCell id="pwvayn23MqUziZKHQvTS-35" value="Бухгалтер" style="shape=umlActor;verticalLabelPosition=bottom;verticalAlign=top;html=1;outlineConnect=0;" parent="1" vertex="1">
          <mxGeometry x="82" y="359" width="30" height="60" as="geometry" />
        </mxCell>
        <mxCell id="Vu3-8s2lDNPPCOWp2bvV-22" style="edgeStyle=orthogonalEdgeStyle;rounded=0;orthogonalLoop=1;jettySize=auto;html=1;endArrow=none;endFill=0;curved=1;" parent="1" source="pwvayn23MqUziZKHQvTS-36" target="pwvayn23MqUziZKHQvTS-29" edge="1">
          <mxGeometry relative="1" as="geometry" />
        </mxCell>
        <mxCell id="pwvayn23MqUziZKHQvTS-36" value="Выставление счета клиенту за автомобиль" style="ellipse;whiteSpace=wrap;html=1;" parent="1" vertex="1">
          <mxGeometry x="181" y="359" width="170" height="60" as="geometry" />
        </mxCell>
        <mxCell id="Vu3-8s2lDNPPCOWp2bvV-15" style="edgeStyle=orthogonalEdgeStyle;rounded=0;orthogonalLoop=1;jettySize=auto;html=1;curved=1;endArrow=none;endFill=0;" parent="1" source="pwvayn23MqUziZKHQvTS-39" target="pwvayn23MqUziZKHQvTS-29" edge="1">
          <mxGeometry relative="1" as="geometry" />
        </mxCell>
        <mxCell id="pwvayn23MqUziZKHQvTS-39" value="Анализ продаж и прибыли" style="ellipse;whiteSpace=wrap;html=1;" parent="1" vertex="1">
          <mxGeometry x="469" y="424" width="170" height="60" as="geometry" />
        </mxCell>
        <mxCell id="Vu3-8s2lDNPPCOWp2bvV-3" value="Запись клиента на техническое обслуживание&amp;nbsp;" style="ellipse;whiteSpace=wrap;html=1;" parent="1" vertex="1">
          <mxGeometry x="469" y="264" width="170" height="60" as="geometry" />
        </mxCell>
        <mxCell id="Vu3-8s2lDNPPCOWp2bvV-17" style="edgeStyle=orthogonalEdgeStyle;rounded=0;orthogonalLoop=1;jettySize=auto;html=1;entryX=0;entryY=0.5;entryDx=0;entryDy=0;endArrow=none;endFill=0;" parent="1" source="Vu3-8s2lDNPPCOWp2bvV-7" target="Vu3-8s2lDNPPCOWp2bvV-8" edge="1">
          <mxGeometry relative="1" as="geometry" />
        </mxCell>
        <mxCell id="Vu3-8s2lDNPPCOWp2bvV-7" value="Механик" style="shape=umlActor;verticalLabelPosition=bottom;verticalAlign=top;html=1;outlineConnect=0;" parent="1" vertex="1">
          <mxGeometry x="79" y="264" width="30" height="60" as="geometry" />
        </mxCell>
        <mxCell id="Vu3-8s2lDNPPCOWp2bvV-8" value="Проведение технического обслуживания" style="ellipse;whiteSpace=wrap;html=1;" parent="1" vertex="1">
          <mxGeometry x="179" y="264" width="170" height="60" as="geometry" />
        </mxCell>
        <mxCell id="Vu3-8s2lDNPPCOWp2bvV-12" style="edgeStyle=orthogonalEdgeStyle;rounded=0;orthogonalLoop=1;jettySize=auto;html=1;entryX=0.5;entryY=0;entryDx=0;entryDy=0;entryPerimeter=0;curved=1;endArrow=none;endFill=0;" parent="1" source="Vu3-8s2lDNPPCOWp2bvV-8" target="pwvayn23MqUziZKHQvTS-29" edge="1">
          <mxGeometry relative="1" as="geometry" />
        </mxCell>
        <mxCell id="Vu3-8s2lDNPPCOWp2bvV-13" style="edgeStyle=orthogonalEdgeStyle;rounded=0;orthogonalLoop=1;jettySize=auto;html=1;entryX=0.5;entryY=0;entryDx=0;entryDy=0;entryPerimeter=0;curved=1;endArrow=none;endFill=0;" parent="1" source="Vu3-8s2lDNPPCOWp2bvV-3" target="pwvayn23MqUziZKHQvTS-29" edge="1">
          <mxGeometry relative="1" as="geometry" />
        </mxCell>
      </root>
    </mxGraphModel>
  </diagram>
</mxfile>
